<svg width="28" height="29" viewBox="0 0 28 29" fill="none" xmlns="http://www.w3.org/2000/svg">
<path d="M13.3378 15.4605C9.13423 15.4606 5.71313 12.2154 5.71322 8.22811C5.71331 4.2408 9.13455 0.995544 13.3381 0.995467C17.5416 0.995391 20.9627 4.24052 20.9626 8.22783C20.9625 12.2151 17.5413 15.4604 13.3378 15.4605ZM13.338 2.88221C10.2351 2.88226 7.70234 5.28476 7.70227 8.22807C7.70221 11.1714 10.2349 13.5738 13.3378 13.5737C16.4407 13.5737 18.9735 11.1712 18.9736 8.22787C18.9736 5.28456 16.441 2.88215 13.338 2.88221Z" fill="#0E194F"/>
<path d="M18.4036 28.0388C17.8997 28.0388 17.4223 27.8627 17.0775 27.5357C16.6665 27.1458 16.4808 26.5797 16.5737 25.9886L16.8256 24.2905C16.8919 23.8503 17.1704 23.3345 17.5019 23.0075L22.1961 18.5548C24.0791 16.7686 25.7366 17.7875 26.5455 18.5547C27.2351 19.2088 27.5931 19.9132 27.5931 20.6176C27.5931 21.3345 27.2483 22.0012 26.5455 22.6678L21.8511 27.1206C21.5196 27.435 20.9628 27.6992 20.4987 27.7621L18.7084 28.0009C18.6023 28.0261 18.5096 28.0388 18.4036 28.0388ZM24.3576 19.4478C24.1189 19.4478 23.9067 19.5988 23.6017 19.8881L18.9075 24.3408C18.8677 24.3785 18.8014 24.5043 18.8014 24.5546L18.5627 26.1269L20.2203 25.9005C20.2733 25.8879 20.4058 25.825 20.4455 25.7873L25.1399 21.3345C25.3521 21.1333 25.604 20.844 25.604 20.6176C25.604 20.4289 25.4449 20.1648 25.1399 19.888C24.8217 19.5862 24.583 19.4478 24.3576 19.4478Z" fill="#0E194F"/>
<path d="M25.1678 23.5984C25.075 23.5984 24.9822 23.5859 24.9026 23.5608C23.1522 23.0954 21.7599 21.7747 21.2693 20.1143C21.1234 19.6112 21.4284 19.0955 21.9589 18.9571C22.4893 18.8188 23.0329 19.1081 23.1788 19.6112C23.4838 20.6426 24.3457 21.4602 25.433 21.7495C25.9634 21.8878 26.2684 22.4161 26.1226 22.9067C26.0032 23.3218 25.6054 23.5984 25.1678 23.5984Z" fill="#0E194F"/>
<path d="M1.94809 28.0392C1.40441 28.0392 0.953561 27.6115 0.953563 27.0958C0.953591 21.7249 6.50974 17.3477 13.3389 17.3476C14.7842 17.3476 16.2164 17.5489 17.5557 17.9262C18.0861 18.0772 18.3778 18.6055 18.2187 19.096C18.0595 19.5992 17.5026 19.8759 16.9854 19.7249C15.8185 19.3979 14.5986 19.2218 13.3388 19.2218C7.61034 19.2218 2.94264 22.7437 2.94262 27.0833C2.94262 27.6115 2.49176 28.0392 1.94809 28.0392Z" fill="#0E194F"/>
</svg>
